<?xml version="1.0" standalone="no"?><!DOCTYPE svg PUBLIC "-//W3C//DTD SVG 1.1//EN" "http://www.w3.org/Graphics/SVG/1.1/DTD/svg11.dtd"><svg class="icon" width="200px" height="200.00px" viewBox="0 0 1024 1024" version="1.1" xmlns="http://www.w3.org/2000/svg"><path d="M464.861955 62.512306C464.302149 63.258615 456.465912 64.937808 447.510212 66.430425 403.664599 73.333777 358.326369 101.320338 330.712962 138.449158 314.480756 160.465253 292.837815 202.445114 284.441847 228.379327 283.135807 232.484023 280.710305 239.200798 278.844535 243.305493 277.165341 247.410189 273.060645 257.671928 269.702258 266.067897 257.947902 295.360498 238.357309 328.011486 203.653973 375.588641 192.459348 390.701384 182.011032 406.000704 180.331838 409.545669 177.533182 415.516135 177.719759 416.449021 180.518415 422.606139 182.384167 426.337606 185.555996 429.695993 187.608344 430.255724 190.593577 431.002033 191.153309 432.308072 190.220386 435.293305 189.474096 437.345597 187.608344 444.995313 185.929169 452.271819 182.943917 466.078523 183.690225 489.21408 190.220386 573.546919 191.71304 592.01805 193.392233 615.153607 193.951965 625.042192L195.258004 642.767015 187.421767 646.311923C177.533182 650.789829 164.472787 665.156264 161.67413 674.858272 156.823126 691.090477 158.315743 697.620675 176.040528 736.615284 185.182842 756.765608 195.631158 780.460897 199.3627 789.603174L206.079475 805.83538 206.079475 881.212518C206.079475 951.738653 206.266089 956.589657 209.437862 959.388314 212.609672 962.373547 229.215032 962.560124 408.888757 962.560124 596.212142 962.560124 604.981265 962.373547 607.779921 959.201737 610.391962 956.40308 610.951731 951.552076 610.951731 933.080946 610.951731 911.064851 610.951731 910.50512 606.100764 906.773578 599.943646 901.922574 592.107446 901.735997 586.510134 906.400424 583.151747 909.19908 581.845707 912.37089 581.099399 920.766859L580.166513 931.774906 236.86473 931.774906 236.304961 889.981641C235.931807 850.800455 236.118421 848.374953 239.103617 849.680993 246.5667 852.852803 260.746558 852.666226 276.419033 849.680993 287.800234 847.442068 297.129088 846.695759 306.831096 847.442068 324.929073 848.934684 331.645847 850.987032 344.146511 859.009846 373.439112 877.667554 393.029705 882.705135 419.52365 878.973594 446.390749 875.055475 471.765232 862.554811 484.265971 846.882336 489.863208 839.978985 490.422939 839.792407 495.087366 842.031332 505.349106 847.442068 539.306096 858.263538 556.844379 861.808503 610.765154 872.81655 657.969154 858.263538 689.873834 820.948123 701.441613 807.327996 708.718119 795.013909 713.942277 779.714589 717.487204 769.639427 718.23355 763.66896 718.23355 745.19783L718.23355 722.622003 744.354341 722.435426C796.409345 722.248849 827.567717 710.494493 847.904618 683.440817 871.040176 653.028754 870.293867 611.235451 845.665693 565.150951 833.165029 541.642164 822.716713 527.275879 805.365045 510.110713 779.803985 484.549654 760.026815 474.287952 733.159716 472.422181 706.852348 470.74295 685.395985 477.832879 668.044316 494.251662 660.208005 501.714745 656.849655 503.393938 649.200088 504.513401 630.728976 507.12548 618.787968 514.77514 608.526229 530.260963 592.294023 554.702634 591.734292 586.047658 607.033612 616.086493L614.496695 630.452927 606.660458 629.146888C602.369111 628.214003 587.06994 627.840811 572.70343 627.840811 543.783983 628.027425 522.141043 631.758967 491.728979 641.647552 482.026896 644.819437 473.444463 647.058287 472.511577 646.871636 470.832346 646.311923 462.063187 625.975078 427.17331 543.134856 417.844457 521.118761 408.888757 501.714745 407.023061 499.662397 402.918291 495.371124 393.216283 494.99797 387.61897 498.916144 379.223002 504.886555 380.155887 511.230138 395.641785 547.426128 442.659245 658.439489 444.711556 664.036801 439.30082 664.036801 436.688741 664.036801 406.276678 682.321392 395.082053 690.530746 385.566622 697.620675 385.193468 697.620675 368.214954 697.620675 348.624361 697.620675 318.772029 703.217987 301.606938 710.121339 295.07674 712.733418 289.479428 714.412612 289.106274 714.039458 288.919697 713.852881 284.441847 705.083758 279.217689 694.635479 267.64991 671.313307 251.231127 653.401945 235.185536 646.311923L224.737182 641.647552 224.550605 631.012659C224.550605 625.042192 224.177451 618.13884 223.804297 615.526761 223.431143 612.914682 221.751912 590.71201 220.25937 566.083836 218.580139 541.455662 216.714368 512.909369 216.154637 502.64763 213.542558 463.653021 215.96806 447.420815 226.602953 430.815455 237.797578 413.463787 258.134479 401.522854 280.150574 399.657084 306.831096 397.418159 332.392156 407.86655 354.967982 430.255724 367.095492 442.383234 369.520994 443.875851 375.678037 443.875851 383.514275 443.875851 387.805547 440.330886 389.857895 432.308072 391.537089 425.404795 386.126354 417.008752 371.200188 403.388625 357.206907 390.514807 343.027049 381.745684 325.861958 375.215487 314.667333 370.924214 310.562638 370.364483 288.173388 370.177906 266.530448 370.177906 261.492866 370.737637 251.790858 374.469178 245.820392 376.708103 240.596234 378.573874 240.22308 378.573874 240.036503 378.573874 246.006969 369.24502 253.656629 357.863819 279.963997 318.86921 292.464661 294.054458 310.562638 245.917573 344.519666 154.867959 380.342464 115.127042 443.218939 98.521682 465.235034 92.737774 501.057833 92.737774 522.32762 98.521682 565.05377 110.089461 599.757106 137.702868 615.616102 173.152513L619.161122 181.361904 611.884616 187.705525C569.53162 224.088055 529.044394 241.066569 471.578692 246.290727 454.226987 247.783343 444.524979 247.783343 431.65116 246.10415 415.605532 244.051802 414.299492 244.051802 409.635065 247.410189 403.478022 252.261193 401.985405 264.015549 407.023061 270.172593 417.284725 282.859834 495.833675 278.941715 541.918213 263.642395 563.00146 256.552466 591.547715 242.186031 607.966498 230.431675 615.989387 224.647786 623.079241 220.169917 623.452395 220.729667 625.131589 222.408861 619.907468 246.477304 615.429581 258.791391 605.727573 284.725604 580.35309 315.883976 550.687298 338.086648 535.201438 349.654427 517.476616 360.289321 507.774608 363.834285 499.938426 366.632941 500.311525 366.819518 470.645807 343.683961 454.786718 331.556451 449.189406 328.198063 444.338402 328.198063 434.636338 328.198063 429.971967 332.675913 429.971967 342.004767 429.971967 351.520198 430.718275 352.079929 463.55584 377.081257 490.422939 397.604736 493.035019 399.097352 500.498139 399.097352 513.185417 399.097352 549.381296 378.573874 579.047051 354.692008 618.601391 322.600751 643.975948 283.419565 651.065802 243.492071 657.596 205.430347 652.371842 175.018283 633.714134 142.553872 624.198703 126.321666 594.719525 97.775374 576.808126 87.700249 558.336921 77.251895 529.044394 67.176733 512.998766 65.684117 506.281991 65.124385 500.311525 63.818346 499.751793 63.072037 498.632256 61.206267 466.727725 60.833113 464.861955 62.512306ZM742.301993 504.513401C784.654989 515.521486 838.016033 592.204627 834.284492 636.983125 832.791875 656.760295 822.156982 672.246193 803.872428 680.828738 783.34895 690.717323 749.765076 694.262288 714.875163 690.344132L702.187921 689.03813 690.80672 676.350888C679.798672 664.223453 655.730229 645.379094 651.065802 645.379094 646.028147 645.379094 644.162451 640.341513 646.401376 633.438235 648.267146 627.281117 648.080569 626.161655 640.804063 614.220722 632.594746 600.600595 625.877897 581.383119 625.877897 571.8678 625.877897 552.463672 642.29668 532.499962 657.596 533.806002 669.910087 534.738887 673.081897 533.432848 683.530214 522.4248 701.441613 503.580515 718.42009 498.356432 742.301993 504.513401ZM611.324848 661.984379C649.94634 672.992501 679.798672 701.538794 687.448332 734.376359 695.097993 767.213925 671.402704 808.074304 634.833597 825.425973 607.033612 838.672945 579.233628 838.486368 537.440325 825.239395 508.707493 815.910542 472.511577 798.372296 467.287382 790.909213 460.010876 780.647474 462.809532 770.385735 473.071271 770.385735 475.869927 770.385735 485.75855 772.811237 494.714287 775.983047 531.469896 788.110557 566.173233 789.976328 601.622877 781.58036 624.38528 776.169624 628.863093 773.930699 631.475209 765.907885 633.714134 758.817956 631.848364 753.034067 626.064474 748.556217 621.773239 745.19783 617.668506 745.570984 597.891336 750.608565 562.628268 759.564265 540.612173 758.444802 502.177295 746.130715 476.802813 738.107901 469.712809 737.361592 458.704836 742.212596 441.353168 750.048834 433.330354 761.989767 433.14374 780.647474 432.9572 795.013909 437.248473 803.969609 449.935714 816.470273 455.346449 821.881008 459.824299 826.918589 459.824299 827.851475 459.824299 830.276977 447.323635 838.672945 436.875393 842.964218 412.620299 853.412534 386.686085 850.987032 367.468646 836.620597 343.58678 818.895775 308.883444 812.738731 271.381452 820.015237 246.753277 824.679664 246.006969 824.119933 231.453957 786.804518 222.498257 763.855537 202.53451 719.823273 193.392233 702.658219 188.541211 693.702594 187.981498 691.090477 189.474096 686.052896 190.407038 682.694509 191.153309 679.709276 191.153309 679.522624 191.153309 678.403236 200.295585 674.485118 206.079475 673.179078 215.96806 670.940116 225.670068 674.671769 235.185536 684.373703 245.633815 695.008596 252.537167 706.949529 261.306289 729.525355 265.037831 739.227363 268.95595 748.183063 270.075412 749.489102 272.687491 752.660913 281.083459 751.168296 295.07674 744.824675 301.047207 742.212596 314.294179 737.548169 324.555918 734.562936 341.161278 729.711932 346.198859 728.965624 370.453879 728.779047 397.134401 728.405893 397.694132 728.219316 404.037753 723.181735 438.554512 695.195173 487.064552 671.686461 528.298086 663.103916 561.88196 656.013987 588.935636 655.640833 611.324848 661.984379Z" fill="#000000" /><path d="M454.600141 423.352372C450.308793 427.457068 449.189406 436.039614 452.361216 442.01008 453.294101 443.875851 470.272615 458.242286 490.049785 473.91476 509.826955 489.587235 526.805469 502.834207 527.551703 503.580515 529.044394 504.886555 526.992046 513.282523 513.185417 564.218065 509.453764 577.465038 506.468568 590.338912 506.468568 592.764395 506.468568 598.921364 514.491382 606.197908 521.208157 606.197908 531.469896 606.197908 535.201438 600.227441 542.851098 571.681148 546.58264 557.314639 552.739683 535.112041 556.284722 522.4248 562.255114 501.528168 562.628268 498.729511 560.389343 494.065084 558.896727 491.266428 542.291367 476.526839 523.260505 461.414096 504.229643 446.301353 485.012204 430.628878 480.534317 426.71076 470.832346 418.314791 461.316916 417.195329 454.600141 423.352372Z" fill="#000000" /></svg>