<?xml version="1.0" standalone="no"?><!DOCTYPE svg PUBLIC "-//W3C//DTD SVG 1.1//EN" "http://www.w3.org/Graphics/SVG/1.1/DTD/svg11.dtd"><svg t="1762269495611" class="icon" viewBox="0 0 1024 1024" version="1.1" xmlns="http://www.w3.org/2000/svg" p-id="942" data-darkreader-inline-fill="" xmlns:xlink="http://www.w3.org/1999/xlink" width="200" height="200"><path d="M137.032282 64.629442C130.814246 69.005098 130.583948 74.301944 135.420199 119.210031 144.40183 202.34739 158.449918 253.243216 188.618956 312.199414 235.599676 404.088176 321.270401 467.880624 425.595236 489.068008 465.667072 497.128426 516.102211 499.6617 576.900791 496.437533 689.976936 490.680092 743.636288 477.09253 794.071473 441.396395 826.773739 418.36663 850.264099 390.040019 867.536423 353.192396 884.808746 315.884177 891.947973 278.575958 891.947973 225.377201 891.947973 184.614517 890.796485 182.541838 868.227316 181.160052 839.44011 179.317671 788.314032 187.378089 753.539087 199.353544 735.806122 205.341305 707.940152 219.159164 689.976936 230.443749 660.498837 249.558454 620.887641 294.927091 609.833354 322.793106 605.918294 332.695905 601.772937 335.920072 601.772937 329.24144 601.772937 327.399059 598.548769 315.884177 594.864007 303.908699 556.864964 185.766005 467.509408 113.913139 316.664448 80.750278 245.96307 65.090038 148.777439 56.338727 137.032282 64.629442ZM204.509493 100.09528C338.312427 112.301056 434.116249 147.536596 494.68453 206.953389 538.210694 249.788752 564.695015 308.054057 576.440195 387.737043 578.973469 405.009366 581.046148 428.039131 581.046148 439.093418L581.046148 458.899016 554.101323 460.5111C502.054055 463.965564 446.552322 458.668718 404.868447 446.693172 382.06898 440.014609 338.773022 420.209011 321.500699 408.463831 283.271289 382.440197 254.484083 352.040907 230.993723 312.890307 199.673266 260.843039 177.79492 188.759875 172.037525 117.367604 170.195144 94.568137 166.510381 96.640815 204.509493 100.09528ZM855.10035 238.734464C855.10035 276.042683 847.039932 314.272093 833.912966 340.756323 807.659034 393.033889 759.526826 430.342016 697.346461 446.693172 683.298212 450.378003 620.657344 458.438421 619.505855 456.826337 619.04526 456.365742 619.505855 443.929669 620.427046 429.420917 625.263251 344.671383 665.335087 281.339529 736.496992 245.643394 767.817541 229.983154 812.034689 218.468271 841.973384 217.777378L855.10035 217.547081 855.10035 238.734464Z" fill="#000000" p-id="943" data-darkreader-inline-fill="" style="--darkreader-inline-fill: var(--darkreader-background-000000, #000000);"></path><path d="M312.058495 560.690577C302.385994 564.605637 301.464803 571.514566 306.991947 597.768498 326.797545 693.342022 373.778265 925.021456 377.002432 943.445268 377.923622 948.051221 380.456897 954.269257 382.759873 957.263127L387.135528 962.559973 583.118827 962.559973C775.877959 962.559973 779.102126 962.559973 783.477781 957.95402 787.162543 954.269257 792.689595 931.46979 808.810522 855.471566 820.325405 801.581917 838.518919 715.68094 849.342908 664.554816 867.306125 579.805281 868.687911 571.053971 865.694041 566.448018 863.621363 563.454148 859.01541 560.690577 854.639754 559.999776 841.512788 557.696799 317.585639 558.617898 312.058495 560.690577ZM826.082846 599.150284C825.622251 601.45326 818.943619 632.313145 811.574094 667.778914 803.974272 703.244821 793.150236 754.601196 787.392841 781.776319 781.405102 808.951441 774.035577 843.726386 771.041708 858.926031 764.363076 890.476809 758.375337 916.961038 756.763254 922.71848 755.841971 926.63354 745.708967 926.863837 583.349125 926.863837L410.856186 926.863837 408.55321 914.658062C396.117137 852.707995 372.857074 738.940956 359.730108 676.069698 350.978798 633.925137 343.839571 598.459391 343.839571 597.307903 343.839571 596.156414 448.62507 595.235224 585.421804 595.235224 814.337666 595.235224 827.004037 595.465522 826.082846 599.150284Z" fill="#000000" p-id="944" data-darkreader-inline-fill="" style="--darkreader-inline-fill: var(--darkreader-background-000000, #000000);"></path></svg>