<?xml version="1.0" standalone="no"?><!DOCTYPE svg PUBLIC "-//W3C//DTD SVG 1.1//EN" "http://www.w3.org/Graphics/SVG/1.1/DTD/svg11.dtd"><svg class="icon" width="200px" height="200.00px" viewBox="0 0 1024 1024" version="1.1" xmlns="http://www.w3.org/2000/svg"><path d="M470.123004 66.422576C453.813033 71.932701 436.401038 83.834572 424.719572 97.279322 416.564587 106.977098 401.797451 135.188939 401.797451 141.58064 401.797451 143.784757 397.830161 146.870383 391.438416 149.73567 370.05913 158.99268 365.651029 161.63754 354.410374 172.657791 343.169718 183.457636 334.573923 197.783962 327.520963 216.518388 325.096508 222.689728 323.553673 238.118079 322.672053 265.88911L321.349623 306.002822 353.308349 306.002822 353.308349 286.166371 657.467262 286.166371 657.467262 306.002822 688.323964 306.002822 688.323964 272.280855C688.323964 232.387548 684.797484 214.093933 674.217999 194.918697 662.095768 173.319006 642.700127 157.890655 617.573956 149.73567 610.520995 147.53162 608.97816 145.547975 605.672085 135.629749 593.54981 98.822113 568.203233 73.916346 532.938432 64.659336 513.763196 59.810404 487.535 60.471641 470.123004 66.422576ZM537.567025 99.483328C558.946267 110.283173 574.154169 132.764484 580.545914 162.739565L582.749964 173.098601 595.313094 175.963866C632.561496 184.118807 651.736732 205.057349 656.365171 242.746584L657.908161 255.309669 352.647134 255.309669 353.969564 243.628204C356.394019 224.012158 361.904144 211.889883 374.46723 198.224772 387.030315 184.780066 400.254616 177.286296 417.005397 174.641436 422.295117 173.759816 426.703217 171.996576 427.144027 170.674146 427.364388 169.351716 428.907267 162.739565 430.450102 156.127415 437.062253 127.915574 454.474248 105.875073 477.616774 96.618062 494.14715 90.226317 521.918247 91.328342 537.567025 99.483328Z" fill="#000000" /><path d="M359.920499 325.839273L272.86052 326.941298 262.28108 333.553448C250.599614 340.826813 239.799769 355.153139 236.493694 367.936629 234.950859 373.446755 234.289644 453.894583 234.730454 600.68432L235.391669 825.05662 240.460984 841.586995C258.093385 898.671893 296.223451 937.68358 352.206324 956.418005 367.634675 961.707726 367.85508 961.707726 505.387806 962.368941 660.773404 963.030156 664.299818 962.809751 696.038205 947.3814 737.253876 927.324544 765.245312 894.925008 782.216586 847.097121L788.608243 829.46472 789.269458 601.786345C789.710268 447.282433 789.049053 371.46311 787.506218 365.512174 783.979738 352.287874 772.298272 338.843168 758.853567 331.790208L746.731291 325.839273 596.855885 325.178058C514.424411 324.957653 407.748386 325.178058 359.920499 325.839273ZM747.392506 362.206099C750.919031 365.071364 755.106682 370.361085 756.429112 373.66716 758.192308 378.295665 758.853567 438.025423 758.412757 601.345535L757.751542 822.852569 751.800606 838.942135C740.119141 871.121267 723.80917 892.500553 698.021784 909.692143 667.385488 930.189809 673.115974 929.528594 513.542747 929.969404 378.43452 930.189809 373.806015 929.969404 359.920499 925.561304 316.941522 911.896193 282.117531 874.427342 270.65647 829.46472 267.791205 818.224064 267.350395 785.383718 267.350395 594.072169L267.350395 371.683515 274.844165 364.189744 282.337936 356.695974 740.780356 356.695974 747.392506 362.206099Z" fill="#000000" /><path d="M508.032666 488.277765C500.979705 494.2287 499.87768 502.383774 505.387806 509.436646L510.016311 515.387581 591.566164 515.387581C670.030348 515.387581 673.115974 515.167176 677.303713 510.979481 683.254648 505.028545 683.034243 494.66951 676.862903 488.93898 672.234398 484.751285 669.589538 484.53088 592.227379 484.53088 519.493726 484.53088 511.999956 484.971778 508.032666 488.277765Z" fill="#000000" /><path d="M538.007747 607.516875C510.677526 608.178178 510.016311 608.178178 505.387806 613.90862 499.87768 620.961581 500.979705 629.116566 508.032666 634.847096 511.999956 638.373576 519.493726 638.814386 592.227379 638.814386L672.234398 638.814386 676.862903 633.745071C682.813838 627.573731 683.034243 618.977935 677.744523 612.365785 673.997638 607.737192 672.675208 607.516875 619.998411 607.29647 590.2438 607.076153 553.43601 607.076153 538.007747 607.516875Z" fill="#000000" /></svg>