<?xml version="1.0" standalone="no"?><!DOCTYPE svg PUBLIC "-//W3C//DTD SVG 1.1//EN" "http://www.w3.org/Graphics/SVG/1.1/DTD/svg11.dtd"><svg class="icon" width="200px" height="200.00px" viewBox="0 0 1024 1024" version="1.1" xmlns="http://www.w3.org/2000/svg"><path d="M170.567587 170.968805C163.985933 172.723935 150.164459 178.208625 140.072589 183.035171 108.261237 198.611775 80.398923 231.520025 69.429499 266.183404 64.822319 280.882432 60.873348 324.760128 62.628456 342.311206L63.50601 351.744911 100.363274 351.744911 100.363274 319.933582 230.241253 320.591747C314.705817 321.249912 361.216175 322.346855 363.190671 323.663186 366.481498 326.515236 366.920275 376.31642 363.629448 382.678686 361.435563 386.627679 357.267182 386.847067 212.470787 386.847067L63.725398 386.847067 62.409067 413.612462C59.995794 464.510633 62.409067 596.582409 66.138672 619.837631 75.133555 675.123572 99.046943 721.195108 139.8532 762.001365 178.026795 800.394349 234.629023 833.083232 285.746538 846.246541 324.139522 856.119022 328.74668 856.338411 515.665663 856.338411 688.105007 856.557799 694.467273 856.338411 716.844898 851.950641 761.16137 842.955714 805.258455 824.965858 840.799388 801.271903 863.396401 786.134098 902.008773 748.618668 916.049636 728.434928 929.87111 708.251188 943.473196 681.266361 950.493627 659.54699 961.463051 625.980509 962.559993 611.720257 962.559993 494.786199L962.559993 386.847067 812.498274 386.847067C687.227453 386.847067 662.217167 386.40829 660.023282 383.775629 658.268174 381.801132 657.610009 371.270485 658.048742 351.525522L658.706951 322.127466 669.676375 321.030524C675.819252 320.372358 735.712307 320.15297 803.06457 320.591747L925.263952 321.249912 925.263952 351.744911 962.559993 351.744911 962.559993 322.566243C962.559993 286.805921 958.830389 268.596678 946.983411 244.463945 929.651722 209.581177 895.427119 181.280063 858.350466 171.846359 841.457553 167.458589 833.998345 167.458589 511.936059 167.677956 232.873915 167.677956 180.878846 168.336143 170.567587 170.968805ZM853.962697 208.923012C871.513775 215.943443 888.187299 227.132255 898.498558 238.979233 908.371039 250.168045 920.876183 272.54567 920.876183 279.127325L920.876183 283.734483 783.977728 284.17326 647.079362 284.831425 638.523211 291.632468C622.069075 304.795777 620.313967 310.719265 620.313967 352.183688 620.313967 372.367428 621.191521 391.234837 622.288464 394.086887 625.798614 402.862426 638.303823 415.806346 647.737527 419.974684 655.854901 423.704332 665.727382 424.143109 790.998203 424.143109L925.263952 424.143109 925.263952 541.954678 899.5955 543.271052C835.095288 546.561792 777.834895 565.648677 726.717379 600.531357 690.298892 625.322343 652.344685 667.444843 630.625226 707.154246 613.732313 737.649156 598.594508 787.669817 598.37512 812.021938L598.37512 821.236254 514.568721 820.797477 430.542934 820.139312 427.910272 800.394349C414.746963 706.49608 351.343693 622.250948 259.419921 576.618101 216.419735 555.337419 164.863443 542.612887 120.985791 542.612887L100.363274 542.612887 100.363274 424.143109 233.751469 424.143109C382.935634 424.143109 377.012145 424.581886 391.491785 408.12775 401.803043 396.280772 403.558151 386.627679 402.680597 347.137753 402.022432 312.91315 402.022432 312.474373 395.440777 303.260057 391.930562 298.214122 384.471353 291.632468 379.20603 288.780418L369.552937 283.734483 237.042296 283.734483C87.858131 283.734483 100.582663 285.48959 109.138813 266.402793 123.399064 235.249629 157.843077 209.1424 190.751283 204.974063 198.210579 203.87712 347.833478 203.218911 522.686029 203.4383L840.799388 203.657644 853.962697 208.923012ZM145.776689 580.128317C269.511791 597.021229 367.797829 683.021513 388.859123 793.154529 390.833619 803.246399 392.808116 813.777046 393.466281 816.629096L394.563223 821.89442 366.481498 820.578089C247.572943 815.312765 145.118524 745.986006 111.55213 648.577522 106.286763 632.562163 100.363274 600.97031 100.363274 587.368136L100.363274 577.715043 114.404159 577.715043C122.302122 577.715043 136.342985 578.81192 145.776689 580.128317ZM925.263952 586.929359C925.263952 600.97031 919.121075 635.633514 914.07514 650.771407 894.330177 709.34813 843.43205 762.878919 779.590003 792.496364 738.783746 811.363773 696.222381 821.236254 656.074289 821.236254 643.569102 821.236254 633.477276 821.016866 633.477276 820.578089 633.477276 820.139312 634.574219 813.996434 635.671161 806.756615 654.319182 699.694993 732.42148 616.985581 841.457553 588.684467 863.835178 582.980367 894.330177 578.153776 911.661866 577.934432L925.263952 577.715043 925.263952 586.929359Z" fill="#000000" /></svg>