<?xml version="1.0" standalone="no"?><!DOCTYPE svg PUBLIC "-//W3C//DTD SVG 1.1//EN" "http://www.w3.org/Graphics/SVG/1.1/DTD/svg11.dtd"><svg class="icon" width="200px" height="200.00px" viewBox="0 0 1024 1024" version="1.1" xmlns="http://www.w3.org/2000/svg"><path d="M792.868714 246.062699C792.210996 249.570528 791.114799 259.217057 790.457081 267.76739L788.922406 283.552619 805.146114 287.060448C857.105828 298.680131 900.295969 338.800922 916.519677 390.979875 918.492831 397.337771 920.904463 402.599558 921.781421 402.818885 927.481642 403.476449 962.55993 394.487704 962.55993 392.295355 962.55993 386.37585 952.694161 358.532459 945.459265 344.281905 930.550992 314.46536 909.284781 290.349037 880.783672 271.055979 858.421264 255.928468 817.204276 240.143238 799.884371 240.143238 795.280346 240.143238 793.745671 241.458674 792.868714 246.062699Z" fill="#000000" /><path d="M684.78374 310.519053C646.855342 315.123078 605.638354 334.854615 576.479571 362.478766 559.598101 378.263996 538.551216 408.299779 531.97395 425.838923 526.712207 439.650999 527.150685 439.43176 483.521999 441.185674 444.497426 442.501022 412.050054 439.870238 358.555665 430.881427 291.029962 419.261744 261.432657 419.700135 223.942737 432.196863 199.168696 440.527956 178.779398 453.463075 158.828665 473.633024 116.73472 515.946318 100.291729 574.921602 115.419285 629.73147 116.73472 634.335495 116.077002 634.773974 107.745887 634.773974 90.206743 634.773974 74.202297 645.078177 65.432769 661.740407 61.705657 669.413783 61.267178 674.456287 61.486417 709.534574 61.486417 731.020025 62.582614 751.190041 63.67881 754.040151 66.74816 762.152005 78.806322 774.867885 88.014372 779.691149 95.906987 783.637457 101.607253 783.856696 194.564671 783.856696 286.425937 783.637457 293.660833 783.418217 304.842038 779.47191 316.242481 775.306363 323.038899 775.087124 429.369958 775.087124 530.877753 775.087124 542.716675 775.525603 549.951572 779.033431 556.96723 782.102782 568.367673 782.760499 640.058923 783.418217 711.311695 784.075935 723.369856 783.637457 733.45493 780.568106 760.859776 771.798535 780.372074 746.586015 782.345227 717.20795 783.002945 706.903746 782.125988 698.572565 779.933595 692.21467L776.645006 683.006619 793.307192 674.894765C847.459299 648.366898 886.483894 597.283966 897.665098 538.308683 914.327284 451.489921 871.356382 365.328877 792.868714 328.058197 761.079015 312.711446 719.862028 306.134267 684.78374 310.519053ZM734.989539 357.217023C793.307192 368.398227 838.908966 411.36913 852.063324 467.27515 856.667349 487.006643 856.44811 518.138667 851.844085 536.11629 840.005163 581.717976 806.900029 620.084985 764.148366 637.404845L746.609222 644.420503 710.434738 643.98198C678.64504 643.324306 672.2871 642.666588 657.159545 637.843368 610.680857 622.496573 573.19085 577.552517 564.20217 525.812043 556.74799 483.498858 569.683109 438.554737 598.841935 404.134145 608.707791 392.51455 628.877631 377.387038 626.027542 383.964174 624.931412 386.156698 623.83515 392.733789 623.177454 398.65325 622.30054 408.08054 622.958258 409.615259 629.973828 416.630873 635.674137 422.331182 639.401162 424.304248 645.101427 424.304248 658.036546 424.085053 661.982853 419.919462 678.425713 387.910437 693.334029 358.751698 694.430357 357.436262 701.665166 356.120827 714.161806 353.928434 718.108113 353.928434 734.989539 357.217023ZM348.689897 475.606244C411.173097 485.691251 444.278231 488.541362 484.399022 487.664405L517.723395 486.787448 516.40796 494.460823C514.434806 506.299745 519.038919 539.404879 525.396771 559.136416 532.631668 581.279585 537.454888 590.487636 556.74799 620.084985 565.079084 633.239299 576.260288 652.313117 581.522031 662.398081L590.949255 680.814226 651.240127 680.814226C705.611473 680.814226 712.407804 681.252661 720.738985 684.979773 736.085736 691.99543 741.566718 710.85001 732.358668 725.758282 724.904531 737.816443 722.712138 738.035683 640.058923 737.377965 541.401283 736.50092 552.801683 742.639708 516.40796 670.29074 504.788277 647.270701 494.922508 628.196795 494.264791 628.196795 493.168594 628.196795 457.651828 645.735939 456.336392 647.051374 455.897913 647.270701 464.667485 665.905954 475.62945 688.268362 486.591415 710.630771 495.580226 729.48535 495.580226 730.143068 495.580226 730.800786 464.009724 731.239265 425.204412 731.239265 361.844255 731.239265 354.828597 730.800786 356.144033 727.731436 359.432623 719.400342 360.09034 700.326436 357.459469 689.364559 352.855444 669.852261 341.016522 650.559291 315.584763 620.961898 302.430405 605.615147 290.810722 593.118507 289.933765 593.118507 288.179851 593.118507 258.144067 619.207984 257.26711 621.400377 256.828631 622.058094 268.009836 635.87017 281.821911 651.874551 296.730184 669.413783 308.349866 684.979773 310.542259 690.899234 316.68096 706.903746 312.076934 721.154257 297.387901 732.116222 291.46844 736.50092 288.39909 736.720247 199.387935 737.377965L107.52667 738.035683 107.52667 678.621833 161.898016 678.402594 216.050122 678.402594 209.472943 673.579329C191.495321 660.424971 170.667631 637.624085 163.871169 624.031248 157.29399 610.438412 156.855512 608.246019 157.074751 586.541328 157.29399 559.136416 161.459581 545.982124 176.587049 522.961932 199.607175 488.10284 237.974052 468.590542 282.918108 468.371347 294.099312 468.152108 320.627267 471.221458 348.689897 475.606244Z" fill="#000000" /><path d="M681.275911 474.948526C677.987322 477.360158 674.260254 483.06038 672.944818 487.883644 670.752425 495.118541 670.971664 497.310934 674.698732 503.66883 683.249065 518.357907 699.911252 520.769539 711.75013 508.930617 722.492899 498.187891 721.615942 483.937337 709.557737 474.29072 702.980602 468.809826 688.291569 469.248304 681.275911 474.948526Z" fill="#000000" /><path d="M724.246814 562.425006C709.119302 571.633056 710.434738 595.530096 726.439206 603.203515 740.470522 609.999889 756.255751 602.545797 759.982819 587.418285 762.175212 579.306519 756.69423 566.809791 749.020942 562.205679 740.251282 556.944023 733.016298 556.944023 724.246814 562.425006Z" fill="#000000" /></svg>